<?xml version="1.0" encoding="UTF-8"?>
<svg id="Layer_1" data-name="Layer 1" xmlns="http://www.w3.org/2000/svg" width="462.02" height="167.98" viewBox="0 0 462.02 167.98">
  <defs>
    <style>
      .cls-1 {
        fill: #ca8d05;
      }

      .cls-2 {
        fill: #2b3d4b;
      }
    </style>
  </defs>
  <path class="cls-2" d="M115.23,33.53h13.7c.55,0,.99.44.99.99v40.43c0,6.57.19,10.83.57,12.78.66,3.13,2.22,5.64,4.69,7.54,2.47,1.9,5.85,2.84,10.14,2.84s7.64-.9,9.85-2.69c2.21-1.79,3.54-3.99,3.99-6.6.45-2.61.67-6.94.67-12.99v-41.32c0-.55.44-.99.99-.99h13.7c.55,0,.99.44.99.99v39.18c0,9.18-.42,15.67-1.26,19.46-.84,3.79-2.38,6.99-4.64,9.6-2.25,2.61-5.27,4.69-9.04,6.23-3.77,1.55-8.7,2.32-14.78,2.32-7.34,0-12.9-.84-16.69-2.53-3.79-1.69-6.79-3.88-8.99-6.57-2.2-2.7-3.65-5.52-4.35-8.48-1.01-4.38-1.52-10.85-1.52-19.41v-39.81c0-.55.44-.99.99-.99Z"/>
  <path class="cls-2" d="M191.04,109.5V34.5c0-.54.44-.97.97-.97h31.72c8.22,0,14.2.69,17.92,2.07,3.73,1.38,6.71,3.84,8.95,7.37,2.24,3.53,3.36,7.58,3.36,12.12,0,5.77-1.7,10.54-5.09,14.3-2.97,3.29-7.22,5.51-12.75,6.68-.84.18-1.06,1.28-.34,1.75,2.42,1.6,4.49,3.31,6.19,5.14,2.19,2.34,5.13,6.51,8.84,12.49l8.46,13.52c.41.65-.06,1.49-.83,1.49h-15.86c-.32,0-.62-.16-.8-.42l-11.04-15.92c-4.02-5.84-6.78-9.52-8.26-11.04-1.48-1.52-3.05-2.56-4.71-3.12-1.66-.56-4.29-.85-7.89-.85h-2.2c-.54,0-.97.44-.97.97v29.4c0,.54-.44.97-.97.97h-13.72c-.54,0-.97-.44-.97-.97ZM205.29,65.32c0,.54.44.97.97.97h10.77c7.61,0,12.37-.32,14.26-.97,1.89-.64,3.38-1.75,4.45-3.32,1.07-1.57,1.61-3.54,1.61-5.9,0-2.65-.71-4.78-2.12-6.41-1.41-1.63-3.41-2.65-5.98-3.08-1.29-.18-5.15-.27-11.58-.27h-11.41c-.54,0-.97.44-.97.97v18Z"/>
  <path class="cls-2" d="M311.09,33.53h-13.67c-.86,0-1.63.53-1.94,1.33l-28.94,74.29c-.25.64.22,1.32.9,1.32h14.07c.88,0,1.67-.55,1.97-1.38l5.48-15.08c.14-.38.5-.64.91-.64h28.74c.4,0,.76.25.91.62l6.09,15.85c.14.38.5.62.91.62h15.27c.69,0,1.16-.69.9-1.33l-29.78-74.38c-.3-.75-1.02-1.24-1.83-1.24ZM294.18,79.25l8.95-24.6c.31-.85,1.51-.85,1.82,0l9.13,24.6c.24.63-.23,1.31-.91,1.31h-18.09c-.67,0-1.14-.67-.91-1.3Z"/>
  <path class="cls-2" d="M353.48,109.5v-62.18c0-.54-.43-.97-.97-.97h-20.86c-.54,0-.97-.43-.97-.97v-10.88c0-.54.43-.97.97-.97h59.33c.54,0,.97.43.97.97v10.88c0,.54-.43.97-.97.97h-20.86c-.54,0-.97.43-.97.97v62.18c0,.54-.43.97-.97.97h-13.73c-.54,0-.97-.43-.97-.97Z"/>
  <path class="cls-2" d="M114.74,166.94l16.39-39.35h4.46l15.99,39.35h-4.05l-4.81-12.35h-19l-4.92,12.35h-4.06ZM125.05,151.42h16.34l-8.17-20.66-8.17,20.66Z"/>
  <path class="cls-2" d="M166.12,166.94v-39.35h14.25c1.16,0,2.3.03,3.42.08,1.12.05,2.22.18,3.3.38,1.08.2,2.13.5,3.16.9,1.02.4,2.02.93,2.98,1.58,1.39.95,2.53,2.1,3.42,3.47.89,1.37,1.59,2.81,2.11,4.32.52,1.51.89,3.04,1.1,4.59.21,1.55.32,2.98.32,4.29s-.09,2.64-.26,3.99c-.17,1.35-.45,2.67-.84,3.96-.39,1.29-.9,2.53-1.54,3.72-.64,1.19-1.44,2.27-2.4,3.25-.97,1.02-2.02,1.84-3.16,2.46-1.14.62-2.34,1.1-3.59,1.45-1.26.35-2.56.58-3.91.71s-2.72.19-4.11.19h-14.25ZM170.06,163.77h9.44c1.78,0,3.45-.1,5.01-.3,1.56-.2,3.16-.7,4.78-1.5,1.39-.66,2.53-1.55,3.42-2.68s1.59-2.36,2.11-3.69c.52-1.33.89-2.72,1.1-4.18.21-1.46.32-2.86.32-4.21,0-1.42-.1-2.87-.29-4.35-.19-1.48-.56-2.88-1.1-4.21-.54-1.33-1.27-2.55-2.2-3.66s-2.12-2.03-3.59-2.76c-1.24-.62-2.7-1.02-4.4-1.2-1.7-.18-3.42-.27-5.16-.27h-9.44v33.01Z"/>
  <path class="cls-2" d="M213.22,127.59h4.11l12.57,34.98,12.51-34.98h4.11l-14.48,39.35h-4.34l-14.48-39.35Z"/>
  <path class="cls-2" d="M262.57,166.94v-39.35h3.94v39.35h-3.94Z"/>
  <path class="cls-2" d="M287.83,155.19c.15,1.75.57,3.23,1.25,4.45s1.54,2.21,2.61,2.98c1.06.76,2.29,1.32,3.68,1.67,1.39.35,2.88.52,4.46.52,1.85,0,3.46-.22,4.81-.66,1.35-.44,2.45-1.03,3.3-1.78.85-.75,1.48-1.61,1.88-2.6.41-.98.61-2.02.61-3.12,0-1.53-.37-2.77-1.1-3.72-.73-.95-1.69-1.72-2.87-2.32-1.18-.6-2.53-1.08-4.05-1.45-1.53-.36-3.09-.72-4.69-1.06-1.6-.35-3.17-.76-4.69-1.23-1.53-.47-2.88-1.11-4.06-1.91-1.18-.8-2.13-1.83-2.87-3.09-.73-1.26-1.1-2.85-1.1-4.78,0-1.35.3-2.66.9-3.94.6-1.28,1.49-2.4,2.66-3.39,1.18-.98,2.65-1.77,4.43-2.35,1.78-.58,3.82-.87,6.14-.87s4.41.31,6.17.93c1.76.62,3.21,1.47,4.37,2.54s2.03,2.32,2.61,3.74.87,2.93.87,4.54h-3.77c0-1.49-.28-2.79-.84-3.88-.56-1.09-1.32-1.98-2.29-2.68-.97-.69-2.07-1.2-3.3-1.53-1.24-.33-2.51-.49-3.82-.49-2.01,0-3.7.26-5.07.79-1.37.53-2.46,1.21-3.27,2.05-.81.84-1.37,1.77-1.68,2.79-.31,1.02-.37,2.04-.17,3.06.23,1.28.77,2.29,1.62,3.06.85.77,1.89,1.39,3.13,1.88,1.24.49,2.6.89,4.08,1.2,1.49.31,3,.64,4.55.98,1.54.35,3.04.76,4.49,1.23,1.45.47,2.73,1.11,3.85,1.91,1.12.8,2.02,1.83,2.69,3.09.68,1.26,1.01,2.83,1.01,4.73,0,3.64-1.33,6.47-4,8.47-2.66,2-6.41,3.01-11.24,3.01-2.16,0-4.17-.26-6.02-.79-1.85-.53-3.46-1.33-4.81-2.4-1.35-1.07-2.4-2.4-3.16-3.99-.75-1.58-1.13-3.45-1.13-5.6h3.82Z"/>
  <path class="cls-2" d="M328.9,147.32c0-2.88.41-5.57,1.25-8.09.83-2.51,2.06-4.71,3.68-6.59,1.62-1.87,3.63-3.36,6.02-4.45s5.16-1.64,8.28-1.64,6.09.54,8.54,1.61c2.45,1.07,4.5,2.55,6.14,4.43,1.64,1.88,2.88,4.08,3.71,6.61.83,2.53,1.25,5.24,1.25,8.11s-.42,5.51-1.25,8.01c-.83,2.5-2.06,4.68-3.68,6.56-1.62,1.88-3.65,3.36-6.08,4.45-2.43,1.09-5.25,1.64-8.46,1.64s-6.02-.55-8.46-1.64c-2.43-1.09-4.46-2.58-6.08-4.45-1.62-1.87-2.84-4.06-3.65-6.56-.81-2.5-1.22-5.16-1.22-8.01ZM348.36,164.81c2.7,0,5.03-.48,6.98-1.45,1.95-.96,3.55-2.25,4.81-3.85,1.25-1.6,2.18-3.46,2.78-5.57.6-2.11.9-4.32.9-6.61,0-2.73-.36-5.18-1.07-7.35-.72-2.17-1.75-4.02-3.1-5.55-1.35-1.53-2.99-2.7-4.92-3.5-1.93-.8-4.09-1.2-6.49-1.2-2.66,0-4.97.49-6.92,1.47-1.95.98-3.55,2.29-4.81,3.91-1.26,1.62-2.18,3.49-2.78,5.6-.6,2.11-.9,4.32-.9,6.61s.3,4.55.9,6.67c.6,2.11,1.53,3.97,2.78,5.57,1.25,1.6,2.86,2.88,4.81,3.82,1.95.95,4.3,1.42,7.04,1.42Z"/>
  <path class="cls-2" d="M388.39,149.07v17.87l-3.94-.05v-39.29h16.34c4.6,0,8.11.81,10.54,2.43,2.43,1.62,3.65,4.25,3.65,7.9,0,2.48-.53,4.45-1.59,5.9-1.06,1.46-2.79,2.7-5.18,3.72,1.24.4,2.2.98,2.9,1.75.7.77,1.22,1.64,1.56,2.62s.57,2.02.67,3.12c.1,1.09.16,2.15.2,3.17.04,1.49.11,2.73.2,3.72.1.98.21,1.79.35,2.4.13.62.3,1.1.49,1.45.19.35.42.61.7.79v.33l-4.34.05c-.43-.66-.72-1.57-.9-2.73-.17-1.17-.31-2.39-.41-3.66-.1-1.28-.17-2.51-.23-3.72-.06-1.2-.17-2.19-.32-2.95-.23-1.06-.61-1.9-1.13-2.54-.52-.64-1.15-1.12-1.88-1.45-.73-.33-1.56-.55-2.46-.66-.91-.11-1.84-.16-2.81-.16h-12.4ZM400.67,145.9c1.47,0,2.83-.15,4.08-.44,1.25-.29,2.35-.76,3.27-1.39.93-.64,1.66-1.45,2.2-2.43.54-.98.81-2.17.81-3.55,0-1.46-.28-2.66-.84-3.61-.56-.95-1.31-1.69-2.26-2.24-.95-.55-2.03-.93-3.24-1.15-1.22-.22-2.48-.33-3.79-.33h-12.51v15.14h12.28Z"/>
  <path class="cls-2" d="M444.87,146.56l12.57-18.96h4.58l-15.12,22.19v17.16h-3.94v-16.89l-14.89-22.46h4.52l12.28,18.96Z"/>
  <path class="cls-2" d="M401.92,109.49V34.5c0-.54.44-.98.98-.98h55.04c.54,0,.98.44.98.98v10.87c0,.54-.44.98-.98.98h-39.37c-.54,0-.98.44-.98.98v15.14c0,.54.44.98.98.98h36.52c.54,0,.98.44.98.98v10.87c0,.54-.44.98-.98.98h-36.52c-.54,0-.98.44-.98.98v19.42c0,.54.44.98.98.98h40.79c.54,0,.98.44.98.98v10.87c0,.54-.44.98-.98.98h-56.47c-.54,0-.98-.44-.98-.98Z"/>
  <path class="cls-1" d="M91.34,94.13c.42.54.35,1.31-.17,1.76l-10.45,8.94c-.58.5-1.45.43-1.95-.16l-12.74-15.28c-.64.37-1.19.65-1.6.88-2.96,1.7-8.54,3.44-13.64,3.44-8.53,0-15.56-3.2-21.1-9.6-5.54-6.4-9.81-15.72-9.81-28.11s4.2-22.09,9.59-28.34c5.39-6.25,12.5-9.37,21.31-9.37s15.88,3.09,21.21,9.26c1.68,1.94,3.21,4.25,4.52,6.89,2.86,5.67,4.68,12.91,4.68,21.42,0,.04,0,.08,0,.12,0,.04,0,.07,0,.11,0,9.66-2.21,14-4.27,19.13-.15.38-.31.73-.47,1.09l15.01,17.96c-.37-.45-.38-1.09-.03-1.56,6.97-9.41,10.49-21.66,10.49-36.8,0-17.56-4.65-31.27-13.94-41.13C78.7,4.93,66.31,0,50.82,0c-8.55,0-16.1,1.42-22.65,4.27-4.92,2.11-9.45,5.35-13.58,9.71-4.13,4.37-7.4,9.3-9.78,14.79C1.6,36.22,0,45.45,0,56.43c0,17.17,4.61,30.64,13.84,40.43,9.22,9.79,21.65,14.68,37.28,14.68,10.34,0,19.25-2.26,26.8-6.67.29-.17.62-.2.92-.12l9.17,10.86c.5.6,1.38.68,1.97.17l10.45-8.94c.53-.45.6-1.26.15-1.79l-9.22-10.91Z"/>
  <rect class="cls-1" x="447.44" y="97.65" width="12.9" height="12.82" rx=".94" ry=".94"/>
</svg>